<svg width="29" height="23" viewBox="0 0 29 23" fill="none" xmlns="http://www.w3.org/2000/svg">
<path d="M26.1 0H5.80002C4.20067 0 2.90002 1.28944 2.90002 2.875V10.0625H5.80002V5.75L15.08 12.65C15.3311 12.8364 15.6363 12.9371 15.95 12.9371C16.2637 12.9371 16.5689 12.8364 16.82 12.65L26.1 5.75V18.6875H14.5V21.5625H26.1C27.6994 21.5625 29 20.2731 29 18.6875V2.875C29 1.28944 27.6994 0 26.1 0ZM15.95 9.70312L6.76572 2.875H25.1343L15.95 9.70312Z" fill="#BCBCBC"/>
<path d="M0 11.5H10.15V14.375H0V11.5ZM2.9 15.8125H11.6V18.6875H2.9V15.8125ZM7.25 20.125H13.05V23H7.25V20.125Z" fill="#BCBCBC"/>
</svg>
