<svg width="20" height="28" viewBox="0 0 20 28" fill="none" xmlns="http://www.w3.org/2000/svg">
<path fill-rule="evenodd" clip-rule="evenodd" d="M1.78208 18.9959C1.43752 16.8809 2.94569 15.2576 4.66101 14.9789C6.73105 14.6427 8.39634 16.1138 8.66479 17.8754C8.98383 19.9688 7.45569 21.6175 5.71013 21.8608C3.662 22.1462 2.05553 20.6744 1.78208 18.9959ZM4.50777 10.9397L5.5582 10.9413L5.59389 8.41046L7.01162 8.40609L7.01051 10.9122L8.12955 10.9103C8.12446 10.2223 8.04604 7.19117 8.1683 6.75727C8.51785 6.70444 9.31517 6.67421 9.59361 6.77513C9.70023 6.91074 9.6699 6.94534 9.66666 7.24791L9.65991 10.9142L10.7288 10.914C10.7241 10.6398 10.6306 6.30896 10.7974 6.04462L12.2272 6.03262L12.2495 10.9451L14.3 10.9253C14.3827 11.0904 14.3719 11.1735 14.368 11.3639C14.364 11.5565 14.3692 11.5611 14.2904 11.759L1.6885 11.7437C1.62376 11.4937 1.60814 11.1622 1.70866 10.9249L2.92433 10.9207L2.94264 9.37787L4.45377 9.38699L4.50768 10.9396L4.50777 10.9397ZM16.1801 12.427L16.1887 3.06518L12.5454 3.07783L12.6443 4.62573L3.5465 4.63168L3.63676 3.03523L0 3.03495L0.0209918 25.122L9.67166 25.1174C9.73426 21.9275 9.67647 18.6751 9.676 15.4783C9.67582 14.2919 9.65742 12.8265 11.4904 12.4807C12.4462 12.3005 15.0629 12.4137 16.1801 12.427Z" fill="#6E6E6E"/>
<path fill-rule="evenodd" clip-rule="evenodd" d="M11.0677 24.6631C11.3003 24.5517 12.8358 24.5107 13.0647 24.6453C13.3468 24.8532 13.1525 26.1552 13.1525 26.1552C12.8757 26.3363 11.7617 26.2857 11.3634 26.256C10.9286 26.2237 11.0005 26.0649 11.0053 25.6346C11.0088 25.3152 10.9631 24.9611 11.0677 24.6632V24.6631ZM17.0506 24.6538C17.2525 24.5816 18.8373 24.4792 19.0666 24.6637C19.3266 24.8672 19.2577 25.952 19.0987 26.1721C18.8643 26.3103 17.5864 26.3141 17.2405 26.2427C16.9167 26.1759 16.9961 25.9376 16.9994 25.5682C17.0022 25.2644 16.9759 24.9042 17.0506 24.6538ZM14.0684 24.6309C14.4092 24.5525 15.7722 24.5617 16.1414 24.6214C16.2327 24.921 16.3444 25.9207 16.0933 26.135C15.8954 26.3335 14.3527 26.2615 14.2718 26.2472C13.9103 26.1835 13.9843 25.9014 13.9868 25.5676C13.9892 25.2367 13.966 24.8954 14.0684 24.6309ZM16.9588 22.9113C16.9588 22.4176 17.1096 22.4071 17.5707 22.4106C19.0411 22.4215 19.1845 22.2464 19.1829 22.9737C19.1818 23.4089 19.2802 23.9376 18.982 24.0514L18.4999 24.0879C16.82 24.0724 16.9588 24.3594 16.9588 22.9113ZM14.4062 24.0858C13.8048 24.0858 13.982 23.7774 13.9772 23.1763C13.9722 22.552 13.8564 22.4149 14.5391 22.4149C16.149 22.4149 16.1874 22.2735 16.1874 22.9113C16.1874 24.311 16.439 24.0858 14.4062 24.0858ZM11.0499 24.0253C10.9595 23.7766 10.9288 23.0336 10.9764 22.7122C11.0412 22.274 11.6307 22.4147 12.0307 22.4148C12.4761 22.4151 13.106 22.2647 13.1812 22.7062C13.2409 23.0558 13.2389 23.7497 13.1157 24.0024C12.8381 24.1597 11.3867 24.1449 11.0499 24.0253ZM17.0931 21.8725C17.0331 21.5381 17.033 21.0883 17.041 20.7151C17.0524 20.1766 17.1993 20.256 17.7055 20.256C18.9746 20.2568 19.2555 20.1086 19.2555 20.7874C19.2555 21.9827 19.3338 21.9311 18.6293 21.9367C17.8277 21.9431 17.8794 21.981 17.0931 21.8724V21.8725ZM14.1728 21.8217C13.9886 21.6709 14.0501 21.4778 14.053 21.1866C14.0546 21.0294 14.0357 20.6487 14.0604 20.5189C14.1404 20.0982 14.8469 20.2562 15.1979 20.256C15.6487 20.2559 16.2073 20.0927 16.2551 20.5828C16.2869 20.9087 16.2729 21.6081 16.2111 21.8744C15.8644 21.9447 14.383 22.0549 14.1727 21.8217H14.1728ZM11.062 20.7874C11.062 20.0466 11.424 20.256 12.1626 20.256C12.7907 20.2561 13.2632 20.0681 13.2632 20.721C13.2632 21.8921 13.3601 21.9368 12.6245 21.9368C10.8681 21.9368 11.062 22.1729 11.062 20.7873V20.7874ZM14.041 19.6385C13.9447 19.3197 13.9793 18.929 13.9837 18.5917C13.99 18.0979 14.0706 18.101 14.5391 18.101C16.218 18.101 16.2045 17.9655 16.2092 18.6636C16.2126 19.1828 16.2463 19.152 16.167 19.6469C15.8688 19.8258 14.3167 19.8462 14.0411 19.6385H14.041ZM11.0086 18.6636C11.0086 17.9354 11.0944 18.0953 11.8325 18.1006C12.2303 18.1035 12.7597 18.0311 13.126 18.1571C13.2488 18.4116 13.3049 19.4274 13.1232 19.6201C12.9466 19.8366 11.6922 19.7972 11.3084 19.7651C10.9085 19.7317 11.0086 19.5685 11.0086 18.6635V18.6636ZM17.0007 18.5972C17.0007 17.984 17.0944 18.1009 18.1013 18.101C18.278 18.101 18.4557 18.0967 18.6315 18.0966L19.065 18.1524C19.1804 17.967 19.3485 19.4703 19.1145 19.6836C18.8106 19.8362 18.2305 19.7562 17.8371 19.759C16.9417 19.7654 17.0005 19.9465 17.0005 18.5973L17.0007 18.5972ZM11.3431 14.2435C11.7344 14.1259 15.9951 14.2171 16.7816 14.2171C19.63 14.2171 19.301 13.9199 19.31 15.876C19.3122 16.3454 19.3973 16.7818 18.9849 16.8916C18.5036 17.0197 13.4561 16.9153 12.1625 16.9174C11.7674 16.9181 11.2123 17.0175 11.0575 16.6494C10.9605 16.4189 11.0097 15.5801 11.0083 15.2786C11.0063 14.8409 10.9273 14.3685 11.3431 14.2435ZM10.2246 25.8314C10.3538 26.6671 10.8448 27.2437 11.7194 27.3266C12.4613 27.3969 16.6357 27.3328 17.7723 27.3371C18.7255 27.3407 19.4626 27.1143 19.7892 26.3989C20.0784 25.7654 19.9488 19.0607 19.9488 17.4688C19.9488 15.6653 20.4319 13.1578 18.4281 12.9745C17.6066 12.8993 13.5271 12.9554 12.3604 12.9549C11.36 12.9546 10.6555 13.1972 10.352 13.9209C10.0716 14.5895 10.2039 18.7273 10.2039 19.7916C10.2039 20.7089 10.1471 25.3294 10.2246 25.8312L10.2246 25.8314Z" fill="#6E6E6E"/>
<path fill-rule="evenodd" clip-rule="evenodd" d="M7.83967 16.7683C7.5727 16.953 5.44522 18.4316 5.03741 18.6934L5.76001 15.3548C5.26776 15.0263 3.97358 15.5014 3.58611 15.7459C3.00333 16.1135 2.59154 16.5666 2.33215 17.2055C1.09586 20.2499 4.70866 22.9899 7.38775 20.6973C8.62145 19.6416 8.53073 17.2695 7.83967 16.7684V16.7683Z" fill="#6E6E6E"/>
<path fill-rule="evenodd" clip-rule="evenodd" d="M7.55343 1.67301C7.46234 0.890415 8.56252 0.783824 8.66036 1.48578C8.76365 2.22699 7.63509 2.37506 7.55343 1.67301ZM6.78598 1.57675C5.75637 1.55517 5.17304 1.50029 4.54541 2.10682C3.98206 2.65131 3.93295 3.30453 3.9336 4.25715L12.2781 4.28226C12.2568 3.31123 12.2074 2.68461 11.6742 2.09743C11.0613 1.42263 10.4631 1.60828 9.42975 1.56903C9.26893 0.948548 9.06096 0.293003 8.13584 0.282865C7.72072 0.278307 7.39669 0.450099 7.19186 0.655468C6.92821 0.919807 6.91369 1.13848 6.78598 1.57675Z" fill="#6E6E6E"/>
</svg>
