<svg width="20" height="17" viewBox="0 0 20 17" fill="none" xmlns="http://www.w3.org/2000/svg">
<path d="M18 0.9263H2C0.9 0.9263 0.00999999 1.81184 0.00999999 2.89418L0 14.7014C0 15.7838 0.9 16.6693 2 16.6693H18C19.1 16.6693 20 15.7838 20 14.7014V2.89418C20 1.81184 19.1 0.9263 18 0.9263ZM17.6 5.10804L10.53 9.45705C10.21 9.65384 9.79 9.65384 9.47 9.45705L2.4 5.10804C2.29973 5.05265 2.21192 4.97783 2.14189 4.88808C2.07186 4.79834 2.02106 4.69555 1.99258 4.58593C1.96409 4.47631 1.9585 4.36215 1.97616 4.25035C1.99381 4.13854 2.03434 4.03143 2.09528 3.93548C2.15623 3.83953 2.23632 3.75675 2.33073 3.69215C2.42513 3.62754 2.53187 3.58245 2.6445 3.55961C2.75712 3.53677 2.87328 3.53666 2.98595 3.55927C3.09863 3.58188 3.20546 3.62675 3.3 3.69117L10 7.81387L16.7 3.69117C16.7945 3.62675 16.9014 3.58188 17.014 3.55927C17.1267 3.53666 17.2429 3.53677 17.3555 3.55961C17.4681 3.58245 17.5749 3.62754 17.6693 3.69215C17.7637 3.75675 17.8438 3.83953 17.9047 3.93548C17.9657 4.03143 18.0062 4.13854 18.0238 4.25035C18.0415 4.36215 18.0359 4.47631 18.0074 4.58593C17.9789 4.69555 17.9281 4.79834 17.8581 4.88808C17.7881 4.97783 17.7003 5.05265 17.6 5.10804Z" fill="#6E6E6E"/>
</svg>
