<svg width="11" height="11" viewBox="0 0 11 11" fill="none" xmlns="http://www.w3.org/2000/svg">
<path d="M10.7628 8.98763L9.07281 7.29412C8.59843 6.81874 7.82929 6.81874 7.35488 7.29412L7.09048 7.55907C6.8777 7.77179 6.72985 8.04088 6.66426 8.33481C6.09143 8.34553 5.44361 8.24792 4.88953 7.8877C4.5492 7.6342 4.22782 7.3561 3.92797 7.05563C3.67466 6.80194 3.43715 6.5329 3.21677 6.25002C2.78495 5.66865 2.67099 4.96313 2.68251 4.34477C2.97583 4.27906 3.24437 4.1309 3.45663 3.91767L3.72104 3.65271C4.19542 3.17734 4.19542 2.4066 3.72104 1.9312L2.03105 0.237693C1.71479 -0.079231 1.20202 -0.079231 0.885779 0.237693L0.595634 0.528509C0.223682 0.901238 0.0332776 1.38669 0.0233769 1.87515C-0.0718695 2.90574 0.125098 4.04025 0.593009 5.15605C0.901954 5.89276 1.32612 6.61211 1.84272 7.28074C1.84923 7.28948 1.85542 7.29833 1.86203 7.30705L1.86278 7.30647C2.12653 7.64553 2.4109 7.96796 2.71426 8.27193C3.02779 8.58635 3.3609 8.88051 3.7116 9.15266L3.70822 9.15714C3.76665 9.20153 3.82624 9.24436 3.88694 9.28558C5.36116 10.3783 7.02743 10.9922 8.578 10.9921C8.66858 10.992 8.75886 10.9895 8.84866 10.9852C9.42621 11.0564 10.0293 10.8704 10.4726 10.4261L10.7628 10.1353C11.0791 9.81839 11.0791 9.30455 10.7628 8.98763Z" fill="#BCBCBC"/>
</svg>
