<svg width="13" height="13" viewBox="0 0 13 13" fill="none" xmlns="http://www.w3.org/2000/svg">
<path d="M6.5 0C2.90927 0 0 2.90927 0 6.5C0 10.0907 2.90927 13 6.5 13C10.0907 13 13 10.0907 13 6.5C13 2.90927 10.0907 0 6.5 0ZM9.69234 4.45302L8.6256 9.48004C8.54698 9.83649 8.33468 9.92298 8.03851 9.75524L6.41351 8.55746L5.62984 9.3123C5.54335 9.39879 5.46996 9.47218 5.30222 9.47218L5.41754 7.81835L8.42903 5.09778C8.56008 4.98246 8.4002 4.91694 8.22722 5.03226L4.50544 7.3754L2.90141 6.8748C2.55282 6.76472 2.54496 6.52621 2.9748 6.35847L9.24153 3.94194C9.53246 3.8371 9.78669 4.0127 9.69234 4.45302Z" fill="#BCBCBC"/>
</svg>
