<svg width="20" height="22" viewBox="0 0 20 22" fill="none" xmlns="http://www.w3.org/2000/svg">
<path d="M17.5 21.3899H2.5C1.8099 21.3899 1.2207 21.1353 0.732422 20.626C0.244141 20.1167 0 19.5021 0 18.7823V3.13645C0 2.41663 0.244141 1.80207 0.732422 1.29277C1.2207 0.783461 1.8099 0.528809 2.5 0.528809H17.5C18.1901 0.528809 18.7793 0.783461 19.2676 1.29277C19.7559 1.80207 20 2.41663 20 3.13645V18.7823C20 19.5021 19.7559 20.1167 19.2676 20.626C18.7793 21.1353 18.1901 21.3899 17.5 21.3899ZM6.25 15.5227C6.25 15.3462 6.18815 15.1934 6.06445 15.0644C5.94076 14.9353 5.79427 14.8708 5.625 14.8708H4.375C4.20573 14.8708 4.05924 14.9353 3.93555 15.0644C3.81185 15.1934 3.75 15.3462 3.75 15.5227V18.1304C3.75 18.3069 3.81185 18.4597 3.93555 18.5888C4.05924 18.7178 4.20573 18.7823 4.375 18.7823H5.625C5.79427 18.7823 5.94076 18.7178 6.06445 18.5888C6.18815 18.4597 6.25 18.3069 6.25 18.1304V15.5227ZM11.25 10.3075C11.25 10.1309 11.1882 9.97811 11.0645 9.84908C10.9408 9.72006 10.7943 9.65555 10.625 9.65555H9.375C9.20573 9.65555 9.05925 9.72006 8.93555 9.84908C8.81185 9.97811 8.75 10.1309 8.75 10.3075V18.1304C8.75 18.3069 8.81185 18.4597 8.93555 18.5888C9.05925 18.7178 9.20573 18.7823 9.375 18.7823H10.625C10.7943 18.7823 10.9408 18.7178 11.0645 18.5888C11.1882 18.4597 11.25 18.3069 11.25 18.1304V10.3075ZM16.25 3.78836C16.25 3.6118 16.1882 3.45901 16.0645 3.32998C15.9408 3.20096 15.7943 3.13645 15.625 3.13645H14.375C14.2057 3.13645 14.0592 3.20096 13.9355 3.32998C13.8118 3.45901 13.75 3.6118 13.75 3.78836V18.1304C13.75 18.3069 13.8118 18.4597 13.9355 18.5888C14.0592 18.7178 14.2057 18.7823 14.375 18.7823H15.625C15.7943 18.7823 15.9408 18.7178 16.0645 18.5888C16.1882 18.4597 16.25 18.3069 16.25 18.1304V3.78836Z" fill="#6E6E6E"/>
</svg>
