<svg width="20" height="17" viewBox="0 0 20 17" fill="none" xmlns="http://www.w3.org/2000/svg">
<path d="M18 8.41165V14.0194C18 14.2673 17.8946 14.505 17.7071 14.6803C17.5196 14.8556 17.2652 14.9541 17 14.9541C16.7348 14.9541 16.4804 14.8556 16.2929 14.6803C16.1054 14.505 16 14.2673 16 14.0194V0.934628C16 0.686749 15.8946 0.449023 15.7071 0.273746C15.5196 0.0984694 15.2652 0 15 0H1C0.734784 0 0.48043 0.0984694 0.292893 0.273746C0.105357 0.449023 0 0.686749 0 0.934628V14.0194C0 15.5653 1.346 16.8233 3 16.8233H17C18.654 16.8233 20 15.5653 20 14.0194V8.41165H18ZM12 7.47703V9.34628H4V7.47703H12ZM4 5.60777V3.73851H12V5.60777H4ZM12 11.2155V13.0848H9V11.2155H12Z" fill="#6E6E6E"/>
</svg>
