<svg width="117" height="53" viewBox="0 0 117 53" fill="none" xmlns="http://www.w3.org/2000/svg">
<path d="M37.0102 10.5109L38.5348 9.80906C38.68 10.3307 38.946 10.7295 39.3327 11.0024C39.7164 11.2783 40.21 11.4148 40.8105 11.4148C41.381 11.4148 41.8307 11.2565 42.1678 10.9424C42.5023 10.6283 42.6698 10.2076 42.6698 9.68062C42.6698 8.99224 42.0965 8.37771 40.9477 7.83965C40.7859 7.76038 40.6624 7.70037 40.5776 7.66484C39.2805 7.03406 38.4167 6.4659 37.9863 5.95513C37.5559 5.44436 37.3392 4.82181 37.3392 4.08706C37.3392 3.13116 37.6655 2.35828 38.3153 1.76563C38.9654 1.17278 39.8209 0.87796 40.8766 0.87796C41.7431 0.87796 42.4699 1.04454 43.0538 1.37769C43.638 1.71104 44.0412 2.1889 44.2659 2.81145L42.7741 3.58172C42.5384 3.21304 42.2805 2.9427 41.998 2.77332C41.7155 2.60132 41.392 2.51663 41.0273 2.51663C40.5145 2.51663 40.1032 2.65029 39.8016 2.91802C39.4973 3.18314 39.3466 3.54077 39.3466 3.98872C39.3466 4.69336 40.013 5.35144 41.3429 5.95794C41.4444 6.00691 41.5238 6.04524 41.5841 6.06993C42.7469 6.60518 43.5447 7.12678 43.9781 7.63494C44.4113 8.14571 44.628 8.78191 44.628 9.54395C44.628 10.6528 44.2769 11.535 43.5749 12.1879C42.8731 12.8406 41.9242 13.1683 40.7287 13.1683C39.7278 13.1683 38.9079 12.9389 38.2664 12.4799C37.6274 12.0213 37.2079 11.3659 37.0104 10.5109H37.0102Z" fill="#FD6F3E"/>
<path d="M52.5546 9.08718C52.5546 8.38275 52.3271 7.78448 51.8717 7.29559C51.4167 6.80669 50.8598 6.56365 50.2017 6.56365C49.549 6.56365 48.9925 6.80669 48.5344 7.29559C48.0766 7.78448 47.8489 8.38275 47.8489 9.08718C47.8489 9.79182 48.0764 10.3899 48.5344 10.8788C48.9923 11.3677 49.549 11.6107 50.2017 11.6107C50.8543 11.6107 51.4109 11.3677 51.8689 10.8788C52.3269 10.3899 52.5546 9.79182 52.5546 9.08718ZM46.0064 9.07073C46.0064 8.51641 46.1134 7.992 46.3246 7.50029C46.5356 7.00598 46.84 6.56626 47.235 6.18394C47.6271 5.80443 48.0768 5.51482 48.5868 5.31012C49.097 5.10782 49.6288 5.00687 50.1855 5.00687C50.7586 5.00687 51.2988 5.10802 51.8062 5.31012C52.3108 5.51482 52.7658 5.81265 53.169 6.20581C53.5692 6.59637 53.8736 7.03609 54.0848 7.52779C54.2932 8.01668 54.3973 8.53287 54.3973 9.07073C54.3973 9.63067 54.2932 10.1579 54.0876 10.6468C53.8821 11.1383 53.5802 11.5726 53.1827 11.9523C52.7658 12.3509 52.3025 12.6541 51.7923 12.859C51.2851 13.0637 50.7477 13.1675 50.1855 13.1675C49.6344 13.1675 49.1025 13.0637 48.5951 12.859C48.0851 12.6543 47.6327 12.3565 47.2352 11.9686C46.8348 11.5726 46.5305 11.1301 46.3191 10.6386C46.111 10.1497 46.0066 9.62525 46.0066 9.07073H46.0064Z" fill="#FD6F3E"/>
<path d="M56.4869 12.8563V6.79311H55.1514V5.26924H56.4869V3.2346C56.4869 2.22952 56.6979 1.48655 57.1176 1.00588C57.5371 0.52803 58.1896 0.287598 59.0726 0.287598C59.2618 0.287598 59.4536 0.301245 59.6513 0.328539C59.8514 0.353225 60.0515 0.396775 60.2546 0.453973V2.01899C60.1148 1.93992 59.9747 1.87971 59.8322 1.83877C59.6924 1.79782 59.5469 1.77876 59.4045 1.77876C58.9849 1.77876 58.6861 1.907 58.505 2.16369C58.3212 2.42058 58.2307 2.85207 58.2307 3.46098V5.26903H60.0626V6.79291H58.2307V12.8561H56.4867L56.4869 12.8563Z" fill="#FD6F3E"/>
<path d="M61.6846 12.8571V6.79394H60.3519V5.27007H61.6846V2.40234H63.4288V5.27007H64.7615V6.79394H63.4288V12.8571H61.6846Z" fill="#FD6F3E"/>
<path d="M61.7106 30.3173L56.4593 18.142H58.4475L61.0827 24.3854C61.2389 24.7459 61.3679 25.0818 61.4692 25.3877C61.5708 25.6963 61.6502 25.9888 61.7106 26.2643C61.7791 25.9723 61.8668 25.6688 61.9738 25.3521C62.0808 25.0381 62.2069 24.7157 62.3522 24.3854L64.9792 18.142H66.9561L61.7106 30.3173Z" fill="#FD6F3E"/>
<path d="M67.8464 18.9968C67.8464 18.7046 67.9563 18.4505 68.1729 18.2348C68.3895 18.0219 68.6472 17.9153 68.9489 17.9153C69.2588 17.9153 69.5193 18.019 69.725 18.2238C69.9306 18.4285 70.0349 18.688 70.0349 18.9968C70.0349 19.3081 69.9306 19.5676 69.7222 19.7777C69.5112 19.9881 69.2535 20.0946 68.9489 20.0946C68.6474 20.0946 68.3897 19.9852 68.1729 19.7695C67.9563 19.554 67.8464 19.2971 67.8464 18.9966V18.9968ZM68.0768 29.8612V22.2742H69.821V29.8612H68.0768Z" fill="#FD6F3E"/>
<path d="M72.3896 29.8594V17.4545H74.1338V29.8594H72.3896Z" fill="#FD6F3E"/>
<path d="M76.7057 29.8594V17.4545H78.45V29.8594H76.7057Z" fill="#FD6F3E"/>
<path d="M88.1093 29.8596H86.3652V28.8792C86.0553 29.3135 85.6906 29.6384 85.2765 29.8513C84.8598 30.0643 84.3855 30.1708 83.8479 30.1708C82.7729 30.1708 81.9227 29.8048 81.306 29.0702C80.6863 28.3381 80.3762 27.333 80.3762 26.0578C80.3762 24.8478 80.6916 23.87 81.3249 23.1273C81.9584 22.3817 82.7838 22.0102 83.8011 22.0102C84.4236 22.0102 84.9555 22.1386 85.397 22.3981C85.8387 22.6548 86.1621 23.0261 86.3651 23.5096V22.2723H88.109V29.8594L88.1093 29.8596ZM86.4148 26.0415C86.4148 25.2578 86.2311 24.6459 85.8635 24.2088C85.496 23.7691 84.9834 23.5505 84.3253 23.5505C83.6645 23.5505 83.1461 23.7773 82.7707 24.2281C82.3923 24.6786 82.203 25.3068 82.203 26.107C82.203 26.9126 82.384 27.5355 82.7485 27.9722C83.1134 28.4121 83.6287 28.6305 84.2924 28.6305C84.9203 28.6305 85.4303 28.3929 85.8224 27.9178C86.2171 27.4426 86.4148 26.817 86.4148 26.0415Z" fill="#FD6F3E"/>
<path d="M95.99 26.0412C95.99 25.2575 95.8062 24.6456 95.4387 24.2085C95.0711 23.7687 94.5585 23.5502 93.9004 23.5502C93.2397 23.5502 92.7212 23.777 92.3458 24.2277C91.9674 24.6783 91.7782 25.3065 91.7782 26.1066C91.7782 26.9122 91.9592 27.5352 92.3237 27.9719C92.6886 28.4118 93.2038 28.6302 93.8676 28.6302C94.4981 28.6302 95.0109 28.3925 95.403 27.9201C95.7923 27.4477 95.99 26.8221 95.99 26.0412ZM95.9406 17.4545H97.6846V29.8594H95.9406V28.879C95.6307 29.3133 95.266 29.6383 94.8519 29.8512C94.4352 30.0641 93.9609 30.1707 93.4233 30.1707C92.3483 30.1707 91.4981 29.8046 90.8813 29.0701C90.2617 28.338 89.9516 27.3329 89.9516 26.0577C89.9516 24.8477 90.267 23.8699 90.9003 23.1271C91.5338 22.3815 92.3591 22.0101 93.3765 22.0101C93.999 22.0101 94.5309 22.1385 94.9724 22.398C95.4141 22.6547 95.7375 23.026 95.9404 23.5095V17.4545H95.9406Z" fill="#FD6F3E"/>
<path d="M105.565 26.0413C105.565 25.2576 105.382 24.6457 105.014 24.2086C104.647 23.7689 104.134 23.5503 103.476 23.5503C102.815 23.5503 102.297 23.7771 101.921 24.2279C101.543 24.6784 101.354 25.3066 101.354 26.1068C101.354 26.9124 101.535 27.5353 101.899 27.972C102.264 28.4119 102.779 28.6303 103.443 28.6303C104.071 28.6303 104.581 28.3927 104.973 27.9176C105.368 27.4424 105.565 26.8168 105.565 26.0413ZM107.26 29.3897C107.26 30.8727 106.964 31.9159 106.369 32.5224C105.774 33.1287 104.77 33.4319 103.361 33.4319C102.311 33.4319 101.471 33.2108 100.846 32.7682C100.218 32.3283 99.9002 31.7413 99.8893 31.0067L101.762 30.9985C101.79 31.3262 101.943 31.5775 102.22 31.7495C102.5 31.9217 102.892 32.0062 103.394 32.0062C104.14 32.0062 104.674 31.8424 105 31.5175C105.329 31.1924 105.494 30.6463 105.499 29.8842L105.516 28.8792C105.206 29.3135 104.841 29.6384 104.427 29.8513C104.011 30.0643 103.536 30.1708 102.999 30.1708C101.924 30.1708 101.074 29.8048 100.457 29.0702C99.8371 28.3381 99.527 27.333 99.527 26.0578C99.527 24.8478 99.8423 23.87 100.476 23.1273C101.109 22.3817 101.935 22.0102 102.952 22.0102C103.574 22.0102 104.106 22.1386 104.548 22.3981C104.989 22.6548 105.313 23.0261 105.516 23.5096V22.2723H107.26V29.3897Z" fill="#FD6F3E"/>
<path d="M117 26.3199H110.912C110.956 27.03 111.167 27.5845 111.549 27.9833C111.927 28.382 112.434 28.5815 113.068 28.5815C113.63 28.5815 114.099 28.4639 114.472 28.2291C114.847 27.9943 115.174 27.6146 115.453 27.0902L116.918 27.9068C116.49 28.6716 115.961 29.237 115.327 29.6111C114.697 29.9852 113.954 30.1708 113.103 30.1708C111.88 30.1708 110.91 29.7996 110.186 29.0594C109.464 28.3164 109.102 27.3278 109.102 26.0905C109.102 24.8998 109.475 23.9246 110.224 23.1574C110.97 22.3925 111.929 22.0102 113.103 22.0102C114.329 22.0102 115.286 22.36 115.971 23.059C116.657 23.7554 117 24.736 117 25.9922V26.3199H117ZM115.19 25.1565C115.122 24.613 114.913 24.1978 114.565 23.9138C114.217 23.627 113.74 23.4849 113.136 23.4849C112.563 23.4849 112.103 23.6242 111.754 23.9001C111.409 24.1787 111.165 24.5965 111.025 25.1565H115.19Z" fill="#FD6F3E"/>
<path d="M33.1323 9.63514V9.43545C33.1323 4.24328 28.8717 0 23.6587 0H9.42362C4.21057 0 0.000201501 4.24328 0.000201501 9.43545V9.63514C0.000201501 11.6322 0.601885 13.4792 1.65433 14.977C2.00534 15.5261 2.40633 16.0255 2.85729 16.4748C4.56139 18.1223 6.86717 19.1208 9.42362 19.1208H22.0547C24.7113 19.1208 26.9168 21.2676 26.9168 23.9133C26.9168 26.5593 24.7113 28.7059 22.0547 28.7059H11.0773C8.42074 28.7059 6.26569 26.5591 6.26569 23.9133H0C0 30.004 4.96238 34.9463 11.0773 34.9463H22.0547C28.1699 34.9463 33.1321 30.0038 33.1321 23.9133C33.1321 21.2674 32.1798 18.8211 30.6258 16.924C30.4755 16.7742 30.3751 16.6245 30.2248 16.4746C28.2197 14.278 25.3126 12.8802 22.0545 12.8802H9.42342C7.66894 12.8802 6.21531 11.4324 6.21531 9.68511V9.48522C6.21531 7.73798 7.66894 6.29017 9.42342 6.29017H23.6585C25.413 6.29017 26.8664 7.73798 26.8664 9.48522V9.68511L33.1321 9.63514H33.1323Z" fill="#FD6F3E"/>
<path d="M42.9952 18.0539L39.7873 24.2941L32.1183 39.2711L24.4494 24.2941L21.2415 18.0539H14.2242L17.4321 24.2941L32.1183 53L46.8048 24.2941L50.0127 18.0539H42.9952Z" fill="#FD6F3E"/>
</svg>
