<svg width="20" height="21" viewBox="0 0 20 21" fill="none" xmlns="http://www.w3.org/2000/svg">
<path d="M9.9998 12.3598C9.17473 12.3605 8.36234 12.1556 7.63527 11.7633C6.9082 11.371 6.28911 10.8036 5.83337 10.1118L7.02337 9.31654C7.34914 9.81063 7.79141 10.2159 8.31076 10.4963C8.83011 10.7767 9.41037 10.9234 9.9998 10.9234C10.5892 10.9234 11.1695 10.7767 11.6888 10.4963C12.2082 10.2159 12.6505 9.81063 12.9762 9.31654L14.1662 10.1118C13.7105 10.8036 13.0914 11.371 12.3643 11.7633C11.6373 12.1556 10.8249 12.3605 9.9998 12.3598Z" fill="#6E6E6E"/>
<path d="M12.8557 4.45723C12.5732 4.45723 12.297 4.5415 12.062 4.69938C11.8271 4.85727 11.644 5.08167 11.5359 5.34423C11.4277 5.60678 11.3995 5.89568 11.4546 6.17441C11.5097 6.45313 11.6458 6.70916 11.8455 6.9101C12.0453 7.11105 12.2999 7.2479 12.577 7.30334C12.8541 7.35878 13.1413 7.33033 13.4024 7.22158C13.6634 7.11282 13.8865 6.92866 14.0435 6.69237C14.2005 6.45608 14.2843 6.17827 14.2843 5.89409C14.2862 5.70486 14.2505 5.51716 14.1794 5.34196C14.1083 5.16676 14.0031 5.0076 13.8701 4.87379C13.7371 4.73998 13.5788 4.63422 13.4046 4.56269C13.2305 4.49116 13.0438 4.45531 12.8557 4.45723Z" fill="#6E6E6E"/>
<path d="M7.14207 4.45723C6.85953 4.45723 6.58333 4.5415 6.3484 4.69938C6.11347 4.85727 5.93037 5.08167 5.82225 5.34423C5.71412 5.60678 5.68583 5.89568 5.74095 6.17441C5.79607 6.45313 5.93213 6.70916 6.13192 6.9101C6.33171 7.11105 6.58626 7.2479 6.86337 7.30334C7.14049 7.35878 7.42773 7.33033 7.68876 7.22158C7.9498 7.11282 8.17291 6.92866 8.32989 6.69237C8.48686 6.45608 8.57064 6.17827 8.57064 5.89409C8.57255 5.70486 8.53691 5.51716 8.46579 5.34196C8.39468 5.16676 8.28952 5.0076 8.15648 4.87379C8.02345 4.73998 7.8652 4.63422 7.69102 4.56269C7.51683 4.49116 7.33021 4.45531 7.14207 4.45723Z" fill="#6E6E6E"/>
<path d="M11.24 20.2623L10 19.5439L12.8571 14.5149H17.1429C17.3305 14.5152 17.5164 14.4782 17.6899 14.4061C17.8633 14.334 18.0209 14.2281 18.1536 14.0947C18.2864 13.9612 18.3916 13.8027 18.4633 13.6282C18.535 13.4537 18.5717 13.2668 18.5714 13.078V3.01997C18.5717 2.83119 18.535 2.64422 18.4633 2.46977C18.3916 2.29531 18.2864 2.1368 18.1536 2.00332C18.0209 1.86984 17.8633 1.76401 17.6899 1.6919C17.5164 1.61979 17.3305 1.58282 17.1429 1.5831H2.85714C2.66946 1.58282 2.48357 1.61979 2.31012 1.6919C2.13667 1.76401 1.97907 1.86984 1.84636 2.00332C1.71365 2.1368 1.60843 2.29531 1.53674 2.46977C1.46505 2.64422 1.42829 2.83119 1.42857 3.01997V13.078C1.42829 13.2668 1.46505 13.4537 1.53674 13.6282C1.60843 13.8027 1.71365 13.9612 1.84636 14.0947C1.97907 14.2281 2.13667 14.334 2.31012 14.4061C2.48357 14.4782 2.66946 14.5152 2.85714 14.5149H9.28571V15.9517H2.85714C2.09938 15.9517 1.37266 15.649 0.836838 15.11C0.30102 14.5711 8.93386e-08 13.8402 8.93386e-08 13.078V3.01997C-9.37538e-05 2.64256 0.0737443 2.26883 0.217296 1.92013C0.360848 1.57143 0.5713 1.25459 0.836629 0.987725C1.10196 0.720856 1.41696 0.509182 1.76365 0.364797C2.11034 0.220413 2.48191 0.146146 2.85714 0.14624H17.1429C17.5181 0.146146 17.8897 0.220413 18.2364 0.364797C18.583 0.509182 18.898 0.720856 19.1634 0.987725C19.4287 1.25459 19.6392 1.57143 19.7827 1.92013C19.9263 2.26883 20.0001 2.64256 20 3.01997V13.078C20 13.8402 19.699 14.5711 19.1632 15.11C18.6273 15.649 17.9006 15.9517 17.1429 15.9517H13.6893L11.24 20.2623Z" fill="#6E6E6E"/>
</svg>
