<svg width="20" height="21" viewBox="0 0 20 21" fill="none" xmlns="http://www.w3.org/2000/svg">
<path d="M0 20.119C0 18.1543 0.766232 16.2701 2.13013 14.8809C3.49403 13.4916 5.34388 12.7112 7.27273 12.7112C9.20157 12.7112 11.0514 13.4916 12.4153 14.8809C13.7792 16.2701 14.5455 18.1543 14.5455 20.119H0ZM7.27273 11.7852C4.25909 11.7852 1.81818 9.29895 1.81818 6.22933C1.81818 3.15971 4.25909 0.673462 7.27273 0.673462C10.2864 0.673462 12.7273 3.15971 12.7273 6.22933C12.7273 9.29895 10.2864 11.7852 7.27273 11.7852ZM16.3636 15.4891H20V17.3411H16.3636V15.4891ZM13.6364 10.8592H20V12.7112H13.6364V10.8592ZM15.4545 6.22933H20V8.08129H15.4545V6.22933Z" fill="#6E6E6E"/>
</svg>
