<svg width="18" height="18" viewBox="0 0 18 18" fill="none" xmlns="http://www.w3.org/2000/svg">
<path d="M17.6119 14.707L14.8464 11.9358C14.0702 11.1579 12.8116 11.1579 12.0353 11.9358L11.6026 12.3694C11.2544 12.7175 11.0125 13.1578 10.9052 13.6388C9.96779 13.6563 8.90773 13.4966 8.00106 12.9071C7.44415 12.4923 6.91826 12.0373 6.42759 11.5456C6.01308 11.1305 5.62442 10.6902 5.2638 10.2273C4.55718 9.27598 4.37071 8.12148 4.38957 7.10963C4.86954 7.0021 5.30896 6.75965 5.65631 6.41073L6.08897 5.97717C6.86523 5.19928 6.86523 3.93807 6.08897 3.16015L3.32354 0.388952C2.80601 -0.129651 1.96694 -0.129651 1.44946 0.388952L0.974674 0.864834C0.366024 1.47475 0.0544542 2.26913 0.0382532 3.06843C-0.117605 4.75485 0.204705 6.61131 0.970378 8.43717C1.47592 9.6427 2.17002 10.8198 3.01535 11.9139C3.02602 11.9282 3.03614 11.9427 3.04695 11.957L3.04819 11.956C3.47978 12.5109 3.94511 13.0385 4.44152 13.5359C4.95456 14.0504 5.49966 14.5317 6.07353 14.9771L6.068 14.9844C6.1636 15.0571 6.26112 15.1271 6.36045 15.1946C8.77281 16.9826 11.4994 17.9872 14.0367 17.987C14.1849 17.987 14.3327 17.9827 14.4796 17.9758C15.4247 18.0923 16.4116 17.7879 17.137 17.0609L17.6119 16.5851C18.1294 16.0664 18.1294 15.2256 17.6119 14.707Z" fill="#BCBCBC"/>
</svg>
