<svg width="20" height="22" viewBox="0 0 20 22" fill="none" xmlns="http://www.w3.org/2000/svg">
<path fill-rule="evenodd" clip-rule="evenodd" d="M13.5421 14.6902H5.31316V12.6174C5.31316 12.5398 5.07838 12.4102 5.01131 12.3768C4.55278 12.1489 4.0852 12.2778 3.70966 12.6121C3.52105 12.78 3.32995 12.9953 3.14794 13.1792L0.901717 15.4484C0.719296 15.6327 0.507303 15.8249 0.340324 16.0159C0.14187 16.2428 0 16.4964 0 16.8285C0 17.4322 0.458694 17.761 0.880137 18.1867L3.66631 21.0014C4.02471 21.3641 4.19264 21.3886 4.6401 21.3887H4.64386C4.89248 21.3886 5.31318 21.1585 5.31318 21.0396V18.5959H13.9741C15.7476 18.5959 17.3365 18.1337 18.3303 17.2801C19.306 16.4421 20 15.2811 20 13.9048C20 13.9043 20 13.9038 20 13.9034V12.6632C19.9832 12.3726 19.9425 12.0989 19.8522 11.8721C19.6938 11.4743 19.2992 11.0708 18.908 10.9059C18.3141 10.6555 17.6135 10.6355 17.0337 10.9299C16.5647 11.168 16.2449 11.516 16.0769 12.0362C15.8884 12.6201 16.053 13.7506 15.9687 13.9997C15.9339 14.1025 15.8168 14.2263 15.7327 14.2849C15.1914 14.6622 14.3086 14.6902 13.5421 14.6902Z" fill="#6E6E6E"/>
<path fill-rule="evenodd" clip-rule="evenodd" d="M14.6861 2.79886C14.591 2.75276 13.2381 2.75392 12.9581 2.75538C12.7559 2.75642 12.5982 2.73341 12.3751 2.73341C11.9791 2.73343 11.5832 2.73341 11.1872 2.73341C10.7733 2.73341 10.4348 2.71159 10.0209 2.71159C9.22897 2.71159 8.43702 2.71113 7.64508 2.71159C7.42706 2.71173 7.29514 2.68926 7.08355 2.68974L5.89491 2.68906L4.79797 2.78096C4.63431 2.80093 4.44779 2.83308 4.28092 2.86957C3.07246 3.13378 2.02849 3.61766 1.20355 4.56095C1.03701 4.75137 0.835487 5.04456 0.70773 5.26011C0.470842 5.6598 0.128877 6.47534 0.128877 7.09726V8.79917C0.128877 9.75025 1.0452 10.6756 2.07272 10.6756C3.03801 10.6756 3.74379 10.1764 3.91459 9.28527C4.04589 8.60034 3.80436 8.00638 4.10978 7.3878C4.53222 6.5322 5.671 6.59543 6.43558 6.59543C7.82635 6.59543 9.16081 6.61725 10.5608 6.61725L14.1678 6.63907C14.3725 6.63893 14.4949 6.66088 14.6861 6.66088V8.97372C14.6861 9.06527 14.9517 9.21285 15.0404 9.24861C15.2498 9.33316 15.3707 9.33487 15.5716 9.32453C15.7659 9.31453 15.9243 9.25533 16.0513 9.17465C16.2901 9.02299 17.4147 7.84278 17.6721 7.58275L19.5835 5.65175C19.8211 5.41177 19.9993 5.16621 19.9993 4.76261C19.9993 4.51131 19.9114 4.30575 19.8124 4.14416C19.772 4.07833 19.7705 4.08972 19.7252 4.03577L18.86 3.09887C18.7902 3.02876 18.7185 2.96433 18.655 2.89144L18.2682 2.47483C18.1441 2.31772 17.9946 2.20517 17.8827 2.05702C17.7708 1.90888 17.6212 1.79634 17.4971 1.63921L16.9053 1.01518C16.5946 0.703119 16.2315 0.187228 15.8449 0.0572187C15.2988 -0.126438 14.7193 0.175009 14.6876 0.356594L14.6861 2.79886Z" fill="#6E6E6E"/>
</svg>
