<svg width="20" height="24" viewBox="0 0 20 24" fill="none" xmlns="http://www.w3.org/2000/svg">
<path d="M0.693819 8.11545C0.897677 8.26412 1.15912 8.30346 1.41317 8.2285L5.29542 7.21816L5.32744 7.21104C5.48157 7.15939 5.62109 7.07122 5.73424 6.95396C5.93902 6.74923 6.05727 6.4745 6.05665 6.20007L6.05634 4.7493C6.05819 4.68952 6.11639 4.54549 6.14472 4.51297C6.15335 4.50616 7.04392 3.72997 10.103 3.72997C13.1557 3.72935 14.0546 4.50306 14.0552 4.50244C14.0964 4.54611 14.1546 4.68952 14.1562 4.74992L14.1559 5.98698C14.1565 6.42339 14.4521 6.8502 14.8583 7.00073L18.7719 8.20651C19.074 8.31182 19.3915 8.24492 19.6046 8.02996C19.7552 7.87943 19.8371 7.67191 19.8371 7.44364L19.8414 4.07408C19.8427 3.75165 19.7013 3.33135 19.5064 3.07427C19.4134 2.95131 17.1435 0.070195 10.1033 0.0698853C4.1277 0.070195 1.56591 2.1807 0.922004 2.82835C0.783738 2.96742 0.712603 3.05755 0.699362 3.07489C0.505357 3.33104 0.364011 3.75103 0.364319 4.07222V7.44302C0.364935 7.71837 0.484725 7.96337 0.693819 8.11545Z" fill="#6E6E6E"/>
<path d="M2.1062 14.6507V15.4383C2.1062 15.8001 2.39875 16.095 2.75935 16.095H4.86445C5.03743 16.0947 5.20325 16.0254 5.32548 15.9023C5.44771 15.7792 5.51637 15.6123 5.51637 15.4383V14.6507C5.51645 14.4766 5.44785 14.3096 5.32563 14.1863C5.2034 14.063 5.03754 13.9935 4.86445 13.9931H2.75935C2.39906 13.9931 2.1062 14.2889 2.1062 14.6507Z" fill="#6E6E6E"/>
<path d="M9.66248 15.4383V14.6507C9.66248 14.2889 9.36994 13.9931 9.00995 13.9931H6.90423C6.54394 13.9931 6.25232 14.2889 6.25232 14.6507V15.4383C6.25232 15.6123 6.32097 15.7792 6.4432 15.9023C6.56544 16.0254 6.73125 16.0947 6.90423 16.095H9.00995C9.37025 16.095 9.66248 15.8001 9.66248 15.4383Z" fill="#6E6E6E"/>
<path d="M13.81 15.4383V14.6507C13.81 14.2889 13.5174 13.9931 13.1568 13.9931H11.0517C10.8785 13.9935 10.7124 14.0629 10.59 14.1861C10.4676 14.3094 10.3987 14.4765 10.3986 14.6507V15.4383C10.3986 15.8001 10.6908 16.095 11.0517 16.095H13.1568C13.3299 16.0948 13.4959 16.0256 13.6184 15.9025C13.7408 15.7794 13.8097 15.6125 13.81 15.4383Z" fill="#6E6E6E"/>
<path d="M17.9593 15.4383V14.6507C17.9593 14.2889 17.6667 13.9931 17.3058 13.9931H15.2007C15.0274 13.9935 14.8614 14.0629 14.7389 14.1861C14.6164 14.3094 14.5475 14.4764 14.5472 14.6507V15.4383C14.5472 15.8001 14.8398 16.095 15.2007 16.095H17.3058C17.479 16.0949 17.645 16.0257 17.7676 15.9026C17.8901 15.7795 17.959 15.6125 17.9593 15.4383Z" fill="#6E6E6E"/>
<path d="M0.651916 12.1831H2.75825C2.93121 12.1827 3.09693 12.1132 3.21912 11.9901C3.34131 11.867 3.41 11.7002 3.41016 11.5262V10.7386C3.41016 10.3774 3.11762 10.0816 2.75825 10.0816H0.651916C0.478979 10.0822 0.313306 10.1516 0.191136 10.2747C0.068966 10.3979 0.000243324 10.5646 0 10.7386V11.5262C8.10408e-05 11.7002 0.0687517 11.8671 0.190957 11.9902C0.313162 12.1133 0.478929 12.1827 0.651916 12.1831Z" fill="#6E6E6E"/>
<path d="M6.90326 12.1831C7.07643 12.183 7.24247 12.1137 7.36492 11.9905C7.48738 11.8674 7.55624 11.7004 7.55641 11.5262V10.7386C7.55641 10.3774 7.26386 10.0816 6.90326 10.0816H4.79816C4.62514 10.0819 4.45933 10.1513 4.33711 10.2745C4.21488 10.3976 4.14624 10.5645 4.14624 10.7386V11.5262C4.14616 11.7002 4.21478 11.8672 4.33702 11.9904C4.45926 12.1136 4.62512 12.1829 4.79816 12.1831H6.90326Z" fill="#6E6E6E"/>
<path d="M11.0535 12.1831C11.2267 12.183 11.3928 12.1137 11.5153 11.9906C11.6378 11.8674 11.7067 11.7004 11.7069 11.5262V10.7386C11.7069 10.3774 11.4144 10.0816 11.0535 10.0816H8.94838C8.7752 10.0819 8.60918 10.1511 8.48669 10.2743C8.36421 10.3974 8.29525 10.5644 8.29492 10.7386V11.5262C8.29492 11.888 8.58747 12.1831 8.94838 12.1831H11.0535Z" fill="#6E6E6E"/>
<path d="M15.2019 10.0816H13.0971C12.9239 10.0819 12.7579 10.1511 12.6354 10.2743C12.5129 10.3974 12.4439 10.5644 12.4436 10.7386V11.5262C12.4436 11.888 12.7362 12.1831 13.0971 12.1831H15.2019C15.3749 12.1829 15.5408 12.1136 15.663 11.9904C15.7852 11.8672 15.8538 11.7002 15.8538 11.5262V10.7386C15.8538 10.5645 15.7851 10.3976 15.6629 10.2745C15.5407 10.1513 15.3749 10.0819 15.2019 10.0816Z" fill="#6E6E6E"/>
<path d="M19.3481 10.0816H17.2418C17.0688 10.0822 16.9032 10.1516 16.781 10.2747C16.6588 10.3979 16.5901 10.5646 16.5898 10.7386V11.5262C16.5898 11.888 16.8824 12.1831 17.2418 12.1831H19.3481C19.5211 12.1827 19.6868 12.1132 19.809 11.9901C19.9312 11.867 19.9998 11.7002 20 11.5262V10.7386C19.9997 10.5646 19.9309 10.3979 19.8088 10.2748C19.6866 10.1517 19.521 10.0823 19.3481 10.0816Z" fill="#6E6E6E"/>
<path d="M3.41016 19.3499V18.5626C3.41016 18.2011 3.11762 17.906 2.75825 17.906H0.651916C0.478983 17.9064 0.313262 17.9757 0.191066 18.0988C0.0688692 18.2219 0.000162512 18.3887 0 18.5626V19.3499C0 19.7123 0.292854 20.0075 0.651916 20.0075H2.75825C2.93132 20.007 3.09713 19.9375 3.21934 19.8142C3.34154 19.691 3.41017 19.524 3.41016 19.3499Z" fill="#6E6E6E"/>
<path d="M4.79816 20.0075H6.90326C7.07651 20.0073 7.2426 19.9379 7.36505 19.8146C7.4875 19.6913 7.55632 19.5242 7.55641 19.3499V18.5626C7.55641 18.2011 7.26386 17.906 6.90326 17.906H4.79816C4.62517 17.9062 4.45936 17.9755 4.33713 18.0986C4.2149 18.2217 4.14624 18.3886 4.14624 18.5626V19.3499C4.14612 19.4362 4.16289 19.5216 4.19558 19.6013C4.22828 19.681 4.27626 19.7535 4.3368 19.8145C4.39734 19.8756 4.46924 19.924 4.5484 19.9572C4.62756 19.9903 4.71242 20.0074 4.79816 20.0075Z" fill="#6E6E6E"/>
<path d="M8.94838 20.0075H11.0535C11.2268 20.0073 11.3929 19.9379 11.5154 19.8146C11.6379 19.6913 11.7068 19.5242 11.7069 19.3499V18.5626C11.7069 18.2011 11.4144 17.906 11.0535 17.906H8.94838C8.7752 17.9061 8.60913 17.9752 8.48662 18.0984C8.36411 18.2215 8.29517 18.3884 8.29492 18.5626V19.3499C8.29492 19.7123 8.58747 20.0075 8.94838 20.0075Z" fill="#6E6E6E"/>
<path d="M13.0971 20.0075H15.2019C15.2876 20.0074 15.3725 19.9903 15.4516 19.9572C15.5308 19.924 15.6027 19.8756 15.6632 19.8145C15.7237 19.7535 15.7717 19.681 15.8044 19.6013C15.8371 19.5216 15.8539 19.4362 15.8538 19.3499V18.5626C15.8538 18.3886 15.7851 18.2217 15.6629 18.0986C15.5407 17.9755 15.3748 17.9062 15.2019 17.906H13.0971C12.9239 17.9061 12.7578 17.9752 12.6353 18.0984C12.5128 18.2215 12.4438 18.3884 12.4436 18.5626V19.3499C12.4438 19.5242 12.5127 19.6913 12.6352 19.8146C12.7577 19.9379 12.9238 20.0073 13.0971 20.0075Z" fill="#6E6E6E"/>
<path d="M19.3481 17.906H17.2418C17.0688 17.9064 16.9031 17.9757 16.7809 18.0988C16.6587 18.2219 16.59 18.3887 16.5898 18.5626V19.3499C16.5898 19.7123 16.8824 20.0075 17.2418 20.0075H19.3481C19.5212 20.007 19.687 19.9375 19.8092 19.8142C19.9314 19.691 20 19.524 20 19.3499V18.5626C20 18.2011 19.7072 17.906 19.3481 17.906Z" fill="#6E6E6E"/>
<path d="M16.9086 21.8175H2.91071C2.73777 21.8181 2.5721 21.8875 2.44993 22.0106C2.32776 22.1337 2.25903 22.3005 2.25879 22.4744V23.2621C2.25871 23.4361 2.32733 23.6031 2.44957 23.7263C2.57181 23.8494 2.73767 23.9188 2.91071 23.919H16.9086C17.0817 23.9188 17.2476 23.8496 17.3699 23.7264C17.4922 23.6032 17.5609 23.4362 17.5608 23.2621V22.4744C17.5608 22.1133 17.2683 21.8175 16.9086 21.8175Z" fill="#6E6E6E"/>
</svg>
