<svg width="24" height="15" viewBox="0 0 24 15" fill="none" xmlns="http://www.w3.org/2000/svg">
<path d="M4.61468 1.44228L0.980591 5.09578C0.669714 5.40834 0.423105 5.77943 0.254852 6.18787C0.0865998 6.59631 0 7.03409 0 7.4762C0 7.9183 0.0865998 8.35608 0.254852 8.76452C0.423105 9.17296 0.669714 9.54405 0.980591 9.85661L4.61468 13.5101C5.24221 14.1411 6.0932 14.4956 6.98052 14.4956C7.86785 14.4956 8.71884 14.1411 9.34636 13.5101L12.9805 9.85661C13.2913 9.54405 13.5379 9.17296 13.7062 8.76452C13.8744 8.35608 13.961 7.9183 13.961 7.4762C13.961 7.03409 13.8744 6.59631 13.7062 6.18787C13.5379 5.77943 13.2913 5.40834 12.9805 5.09578L9.34636 1.44228C8.71884 0.811304 7.86785 0.456841 6.98052 0.456841C6.0932 0.456841 5.24221 0.811304 4.61468 1.44228Z" fill="#6E6E6E"/>
<path d="M14.6536 13.5108L13.1829 12.0332L14.1634 11.0471C14.6296 10.5783 14.9994 10.0217 15.2517 9.4091C15.504 8.79652 15.6339 8.13995 15.6339 7.47688C15.6339 6.81382 15.504 6.15725 15.2517 5.54467C14.9994 4.93209 14.6296 4.3755 14.1634 3.90668L13.1829 2.92221L14.6536 1.44129C15.2812 0.810308 16.1321 0.455845 17.0195 0.455845C17.9068 0.455845 18.7578 0.810308 19.3853 1.44129L23.0194 5.09647C23.3303 5.40902 23.5769 5.78012 23.7451 6.18856C23.9134 6.597 24 7.03477 24 7.47688C24 7.91899 23.9134 8.35677 23.7451 8.76521C23.5769 9.17365 23.3303 9.54474 23.0194 9.8573L19.3853 13.5108C18.7578 14.1418 17.9068 14.4962 17.0195 14.4962C16.1321 14.4962 15.2812 14.1418 14.6536 13.5108Z" fill="#6E6E6E"/>
</svg>
